<?xml version="1.0" encoding="UTF-8"?>
<svg width="24px" height="24px" viewBox="0 0 24 24" version="1.1" xmlns="http://www.w3.org/2000/svg" xmlns:xlink="http://www.w3.org/1999/xlink">
    <title>icon-通知公告</title>
    <g id="页面-1" stroke="none" stroke-width="1" fill="none" fill-rule="evenodd">
        <g id="苏州-首页-改版" transform="translate(-379.000000, -197.000000)" fill-rule="nonzero">
            <g id="icon-通知公告" transform="translate(379.000000, 197.000000)">
                <rect id="矩形" fill="#000000" opacity="0" x="0" y="0" width="24" height="24"></rect>
                <path d="M12.8031243,3.08508837 C12.4969485,2.93700989 12.13206,2.98500677 11.8745925,3.20722601 L6.87480614,7.47704361 L2.88926211,7.46061574 L2.88783361,7.46061574 C2.6569754,7.46098188 2.43602616,7.5544604 2.27500265,7.71989037 C2.11017548,7.8883885 2.01809631,8.11486735 2.01858503,8.35057771 L2.00000714,15.4831301 C1.99907173,15.7188004 2.09003042,15.9455565 2.25357498,16.115246 C2.41480869,16.2824374 2.63699342,16.3770334 2.86926298,16.3773777 L6.90266209,16.3773777 L11.8781638,20.6314816 C12.1357831,20.853463 12.5006585,20.9011774 12.8066956,20.752905 C13.1145574,20.6018772 13.3088307,20.2879871 13.306692,19.9450824 L13.306692,3.89219676 C13.3083841,3.5495976 13.1142044,3.2361361 12.8066956,3.08508837 L12.8031243,3.08508837 Z M16.1744088,7.54489784 C15.967026,7.44680324 15.7289742,7.43594001 15.5135191,7.51473887 C15.2980639,7.59353773 15.123191,7.75542078 15.0280292,7.96416565 C14.8217726,8.40324392 14.9965391,8.92691483 15.4251551,9.15411481 C16.3405605,9.73550135 16.8620313,10.7732283 16.78224,11.8547137 C16.78224,13.9674806 15.5644349,14.6674507 15.5237223,14.6903069 C15.0916223,14.918437 14.9191743,15.4487544 15.1344533,15.8873986 C15.2780309,16.1877679 15.580788,16.3795233 15.9137057,16.380949 C16.0485817,16.380949 16.1815304,16.3489262 16.3015463,16.2873815 C16.3922567,16.2402407 18.5207372,15.1102889 18.5207372,11.8547137 C18.6147805,10.0902167 17.7069538,8.42319728 16.1736946,7.54489784 L16.1744088,7.54489784 Z M18.881436,4.92500978 C18.6882103,4.79960578 18.4526402,4.75725745 18.2278363,4.80751248 C18.0030324,4.8577675 17.8079196,4.99639522 17.6864871,5.19214123 C17.4266917,5.60426318 17.5378791,6.14791587 17.9386192,6.42494569 C18.0329009,6.48851441 20.2606628,8.04559074 20.2606628,11.9204252 C20.2606629,15.7952597 18.1236113,17.3630498 18.0386149,17.4201902 C17.6373352,17.6997378 17.5304647,18.2473701 17.7971967,18.6572803 C17.9219093,18.8530158 18.1206687,18.9898083 18.3480367,19.0363857 C18.5754046,19.0829631 18.8119418,19.0353433 19.0035737,18.9044125 C19.1257113,18.8208447 21.99916,16.8002167 21.99916,11.9175682 C21.99916,7.03491964 19.0085735,5.00643487 18.881436,4.922867 L18.881436,4.92500978 Z" id="形状" fill="#FA604C"></path>
            </g>
        </g>
    </g>
</svg>