<?xml version="1.0" encoding="UTF-8"?>
<svg width="431px" height="64px" viewBox="0 0 431 64" version="1.1" xmlns="http://www.w3.org/2000/svg" xmlns:xlink="http://www.w3.org/1999/xlink">
    <title>文字logo</title>
    <defs>
        <polygon id="path-1" points="0 0 22.7405466 0 22.7405466 29.968716 0 29.968716"></polygon>
        <polygon id="path-3" points="4.83230914e-15 0 22.0348205 0 22.0348205 29.968988 4.83230914e-15 29.968988"></polygon>
        <polygon id="path-5" points="0 0 21.7404788 0 21.7404788 29.999728 0 29.999728"></polygon>
    </defs>
    <g id="页面-1" stroke="none" stroke-width="1" fill="none" fill-rule="evenodd">
        <g id="苏州-首页-改版" transform="translate(-483.000000, -43.000000)">
            <g id="文字logo" transform="translate(483.000000, 43.000000)">
                <rect id="矩形" fill="#FFFFFF" opacity="0" x="0" y="0" width="431" height="64"></rect>
                <g id="编组" transform="translate(0.000000, 34.000000)">
                    <g transform="translate(0.000000, 0.031284)">
                        <mask id="mask-2" fill="white">
                            <use xlink:href="#path-1"></use>
                        </mask>
                        <g id="Clip-2"></g>
                        <path d="M20.6814098,13.4581873 C20.9888092,13.4581873 21.2581236,13.5670012 21.4893532,13.7846291 C21.7205828,14.0022569 21.8375578,14.2742918 21.8375578,14.6007335 L21.819887,24.4198975 C21.819887,24.7463393 21.8299637,25.0266391 21.9749469,25.236002 C22.11993,25.4453649 22.0810404,25.3907422 22.2046382,25.4893226 C22.328236,25.5879031 22.4739527,25.5981366 22.5691649,25.8157644 C22.664377,26.0333923 22.710623,26.2945457 22.710623,26.5992247 L22.710623,27.382685 C22.710623,27.7064064 22.6317329,27.9838819 22.4657916,28.2015098 C22.3025707,28.413697 22.101265,28.5252312 21.8618743,28.5252312 C21.6442465,28.5252312 21.3803727,28.4517818 21.0620919,28.296722 C20.7465316,28.1416621 19.7850666,27.2381782 19.5674387,26.9987876 C19.3498108,26.759397 19.1621068,26.4492773 19.0124877,26.0657082 C18.8574278,25.6875798 18.7839659,25.3339345 18.7839659,25.0074927 L18.8016492,14.6007335 C18.8016492,14.2742918 18.9104631,14.0022569 19.1308113,13.7846291 C19.3511596,13.5670012 19.612313,13.4581873 19.9224327,13.4581873 L20.6814098,13.4581873 Z M4.07997824,21.8389554 C4.07997824,22.1436344 4.00924918,22.4863983 3.86779108,22.867247 C3.72361262,23.2480958 3.52230686,23.5228509 3.28835691,23.7976061 L3.09249184,24.0070729 C2.87214363,24.2709467 2.00163221,24.9863983 1.67247008,25.1523395 C1.3405876,25.3155604 1.06855277,25.3971708 0.84820457,25.3971708 C0.611534276,25.3971708 0.407508161,25.2883569 0.247007617,25.0707291 C0.0810663765,24.8531012 -0.00054406964,24.5810664 -0.00054406964,24.2546246 L-0.00054406964,23.9309032 C-0.00054406964,23.6262242 0.0511425462,22.9325354 0.149075082,22.7040261 C0.247007617,22.4755169 0.372143634,22.3612622 0.521762786,22.3612622 C0.652339499,22.3612622 0.77203482,22.2524483 0.880848749,22.0348205 C0.989662677,21.8144723 1.04678999,21.5560392 1.04678999,21.2486398 L1.04678999,14.6245919 C1.04678999,14.2981502 1.16104461,14.0261153 1.39227421,13.8084875 C1.62350381,13.5908596 1.89009793,13.4820457 2.20021763,13.4820457 L2.95919478,13.4820457 C3.26659412,13.4820457 3.5304679,13.5908596 3.7508161,13.8084875 C3.97116431,14.0261153 4.07997824,14.2981502 4.07997824,14.6245919 L4.07997824,21.8389554 Z M1.01067114,28.0712731 C1.01067114,27.7475517 1.11948507,27.4755169 1.33711292,27.257889 C1.55474078,27.0402612 1.81589421,26.9287269 2.12057321,26.9287269 L6.64050598,26.9287269 C6.96694777,26.9287269 7.24170294,26.8226333 7.45933079,26.6050054 C7.6742383,26.3873776 7.78305223,26.1153428 7.78305223,25.7861806 L7.78305223,12.8618925 C7.78305223,12.5354507 7.6742383,12.2606956 7.45933079,12.0430677 C7.24170294,11.8281602 6.96694777,11.7193463 6.64050598,11.7193463 L1.109358,11.7193463 C0.804678999,11.7193463 0.543525571,11.6105324 0.325897715,11.3929045 C0.108269859,11.1752766 -0.000544069655,10.9005215 -0.000544069655,10.5740797 L-0.000544069655,9.82598393 C-0.000544069655,9.49954214 0.108269859,9.22750732 0.325897715,9.00987947 C0.543525571,8.79225161 0.804678999,8.68343768 1.109358,8.68343768 L6.64050598,8.68343768 C6.96694777,8.68343768 7.24170294,8.61270863 7.45933079,8.47125052 C7.6742383,8.32979242 7.78305223,8.15024943 7.78305223,7.93262158 L7.89040089,7.13283921 C7.89040089,7.08931363 7.95084136,6.93114728 8.18207096,6.90122345 C8.41058021,6.86857927 8.62091948,6.85536369 8.92831882,6.85536369 L9.70905876,6.85536369 C10.0137378,6.85536369 10.3750563,6.96258914 10.530719,7.07965002 C10.6863817,7.19671091 10.7031812,7.69323094 10.7031812,7.93262158 C10.7031812,8.17201222 10.7252855,8.24708307 10.9429134,8.4293464 C11.1605412,8.61705043 11.3758039,8.68343768 11.7022457,8.68343768 L17.052945,8.68343768 C17.2923356,8.68343768 17.4936414,8.79225161 17.6595826,9.00987947 C17.8200832,9.22750732 17.904414,9.49954214 17.904414,9.82598393 L17.8527274,27.7883569 C17.8527274,28.0903156 17.8092018,28.888021 17.6595826,29.2715901 C17.5045228,29.6469981 17.3005236,29.8466584 17.0016927,29.9054731 C16.7028618,29.9642878 15.9802503,29.968716 15.4347281,29.968716 C15.0631351,29.9700762 14.6481572,29.9700762 14.3434782,29.9700762 L13.5627382,29.9700762 C13.2362965,29.9700762 12.9615413,29.8531012 12.7439134,29.6245919 C12.5262856,29.3960827 12.4174716,29.1294886 12.4174716,28.8275299 L12.4174716,28.0712731 C12.4174716,27.7475517 12.5262856,27.4755169 12.7439134,27.257889 C12.9615413,27.0402612 13.2362965,26.9287269 13.5627382,26.9287269 L13.7232388,26.9287269 C14.0524009,26.9287269 14.3217154,26.8226333 14.5393432,26.6050054 C14.7569711,26.3873776 14.865785,26.1153428 14.865785,25.7861806 L14.865785,12.8618925 C14.865785,12.5354507 14.7569711,12.2606956 14.5393432,12.0430677 C14.3217154,11.8281602 14.0524009,11.7193463 13.7232388,11.7193463 L11.6925874,11.7193463 C11.3661456,11.7193463 11.3630305,11.8281602 11.1454026,12.0430677 C10.9277748,12.2606956 10.8189608,12.5354507 10.8189608,12.8618925 L10.8189608,26.4091404 C10.8189608,26.711099 10.7455114,27.0565832 10.5904516,27.4401523 C10.2313656,28.3269859 9.45878672,28.9036997 9.24931991,29.1240479 L9.21939608,29.1512514 C8.9664037,29.3688792 8.67532644,29.5865071 8.30535909,29.7415669 C7.93811208,29.8884657 7.58990751,29.9700762 7.26074538,29.9700762 L2.12057321,29.9700762 C1.81589421,29.9700762 1.55474078,29.8531012 1.33711292,29.6245919 C1.11948507,29.3960827 1.01067114,29.1294886 1.01067114,28.8275299 L1.01067114,28.0712731 Z M-0.00054406964,2.80941193 C-0.00054406964,2.50473293 0.0919477693,2.23269811 0.279651795,1.99330746 C0.461915125,1.75391682 0.706746464,1.6342215 1.01142546,1.6342215 C1.29706202,1.6342215 2.97721708,1.55805175 3.15948041,1.40571225 C3.34718444,1.25337275 3.43967628,1.08813928 3.43967628,0.846028292 C3.43967628,0.609357998 3.5539309,0.489792674 3.78244015,0.32929213 C4.0109494,0.166071238 4.26666213,0.084460792 4.54957835,0.084460792 L5.33303863,0.084460792 C5.65948041,0.084460792 5.93151523,0.166071238 6.14914309,0.32929213 C6.36677095,0.489792674 6.47558487,0.609357998 6.47558487,0.846028292 C6.47558487,1.08813928 6.5843988,1.0248635 6.80202666,1.177203 C7.01693417,1.3295425 7.29168934,1.40571225 7.61813112,1.40571225 L12.6048694,1.40571225 C12.9313112,1.40571225 14.6903564,1.3295425 14.9079842,1.177203 C15.1256121,1.0248635 15.234426,1.08813928 15.234426,0.846028292 C15.234426,0.609357998 15.3432399,0.489792674 15.5608678,0.32929213 C15.7784956,0.166071238 16.0505305,0.084460792 16.3769723,0.084460792 L17.1305087,0.084460792 C17.4324674,0.084460792 17.7017818,0.166071238 17.9302911,0.32929213 C18.1588003,0.489792674 18.273055,0.609357998 18.273055,0.846028292 C18.273055,1.08813928 18.3442942,1.06841698 18.5401592,1.22075648 C18.7360243,1.37309598 21.3900185,1.40571225 21.675655,1.40571225 C21.9776137,1.40571225 22.3911066,1.50908548 22.5570478,1.76479821 C22.714828,2.00418886 22.714828,2.38231726 22.714828,2.68699626 L22.714828,3.17121824 C22.714828,3.47317689 22.5951327,3.69896579 22.4074287,3.9138733 C22.222445,4.13150115 21.9776137,4.24031508 21.675655,4.24031508 C21.3900185,4.24031508 18.7599973,4.30832379 18.5641322,4.4389005 C18.3682671,4.56947721 18.273055,5.07252839 18.273055,5.24663067 C18.273055,5.42073296 18.1588003,5.56219106 17.9302911,5.67100499 C17.7017818,5.77981892 17.4324674,5.83422588 17.1305087,5.83422588 L16.3769723,5.83422588 C16.0505305,5.83422588 15.7784956,5.77981892 15.5608678,5.67100499 C15.3432399,5.56219106 15.234426,5.42073296 15.234426,5.24663067 C15.234426,5.07252839 15.1256121,4.56947721 14.9079842,4.4389005 C14.6903564,4.30832379 12.9313112,4.24031508 12.6048694,4.24031508 L7.61813112,4.24031508 C7.29168934,4.24031508 7.01693417,4.30832379 6.80202666,4.4389005 C6.5843988,4.56947721 6.47558487,5.07252839 6.47558487,5.24663067 C6.47558487,5.42073296 6.36677095,5.56219106 6.14914309,5.67100499 C5.93151523,5.77981892 5.65948041,5.83422588 5.33303863,5.83422588 L4.54957835,5.83422588 C4.26666213,5.83422588 4.0109494,5.77981892 3.78244015,5.67100499 C3.5539309,5.56219106 3.43967628,5.42073296 3.43967628,5.24663067 C3.43967628,5.07252839 3.34718444,4.56947721 3.15948041,4.4389005 C2.97721708,4.30832379 1.29706202,4.24031508 1.01142546,4.24031508 C0.706746464,4.24031508 0.461915125,4.13150115 0.279651795,3.9138733 C0.0919477693,3.69896579 -0.00054406964,3.43781236 -0.00054406964,3.13313336 L-0.00054406964,2.80941193 Z" id="Fill-1" fill="#3978BA" mask="url(#mask-2)"></path>
                    </g>
                    <g transform="translate(26.740547, 0.031012)">
                        <mask id="mask-4" fill="white">
                            <use xlink:href="#path-3"></use>
                        </mask>
                        <g id="Clip-4"></g>
                        <path d="M14.1784548,16.7791077 C14.4804135,16.7791077 14.7442873,16.8879217 14.9700762,17.1055495 C15.1958651,17.3231774 15.3101197,17.5843308 15.3101197,17.8890098 L15.3101197,20.008161 C15.3101197,20.359086 15.3808487,20.7399347 15.5250272,21.1507073 C15.6664853,21.5669206 15.8242655,21.9042437 16.0010881,22.1626768 L18.6398259,25.9521219 C18.8384113,26.2350381 19.1158868,26.4581066 19.4804135,26.6213275 C19.8422198,26.7872688 20.187704,26.8661589 20.5168662,26.8661589 L20.8813928,26.8661589 C21.210555,26.8661589 21.4853101,26.9831338 21.7056583,27.2225245 C21.9260065,27.4564744 22.0348205,27.7257889 22.0348205,28.0304679 L22.0348205,28.773123 C22.0348205,29.0914037 21.9260065,29.3688792 21.7083787,29.5973885 C21.4907508,29.820457 21.2159956,29.937432 20.8895539,29.937432 L18.8928183,29.937432 C18.5663765,29.937432 18.2236126,29.8422198 17.8618063,29.6545158 C17.5054407,29.4749728 17.2388466,29.2355822 17.0647443,28.9553863 L14.5103373,25.2992383 C14.3171926,25.0380849 14.085963,24.9075082 13.8248096,24.9075082 C13.5609358,24.9075082 13.3433079,25.0380849 13.171926,25.2992383 L10.5875952,28.9553863 C10.4107726,29.2355822 10.1468988,29.4749728 9.78509249,29.6545158 C9.42600653,29.8422198 9.0914037,29.937432 8.78944505,29.937432 L6.75734494,29.937432 C6.43090316,29.937432 6.15614799,29.820457 5.92491839,29.5973885 C5.69640914,29.3688792 5.58215452,29.0914037 5.58215452,28.773123 L5.58215452,28.0304679 C5.58215452,27.7257889 5.69640914,27.4564744 5.92491839,27.2225245 C6.15342764,26.9831338 6.43090316,26.8661589 6.75462459,26.8661589 L7.18171926,26.8661589 C7.48639826,26.8661589 7.81828074,26.7872688 8.1773667,26.6213275 C8.53645267,26.4581066 8.81392818,26.2350381 9.00979325,25.9521219 L11.6213275,22.1626768 C11.7954298,21.9042437 11.9477693,21.5669206 12.078346,21.1507073 C12.2089227,20.7399347 12.2742111,20.359086 12.2742111,20.008161 L12.2742111,17.8890098 C12.2742111,17.5843308 12.383025,17.3231774 12.5979325,17.1055495 C12.81284,16.8879217 13.0930359,16.7791077 13.4385201,16.7791077 L14.1784548,16.7791077 Z M5.51958651,3.85201306 C5.21490751,3.85201306 4.94559304,3.96626768 4.71708379,4.19749728 C4.48857454,4.42872688 4.37431991,4.7007617 4.37431991,5.00816104 L4.37431991,5.79978237 C4.37431991,6.1289445 4.48857454,6.40369967 4.71708379,6.62404788 C4.94559304,6.84439608 5.21490751,6.95321001 5.51958651,6.95321001 L11.0609358,6.95321001 C11.4091404,6.95321001 11.6947769,6.84439608 11.9124048,6.62404788 C12.132753,6.40369967 12.2415669,6.1289445 12.2415669,5.79978237 L12.2415669,5.00816104 C12.2415669,4.7007617 12.132753,4.42872688 11.9124048,4.19749728 C11.6947769,3.96626768 11.4091404,3.85201306 11.0609358,3.85201306 L5.51958651,3.85201306 Z M0,28.0930359 C0,27.7693145 0.0652883569,27.4972797 0.195865071,27.2687704 C0.326441785,27.0457018 0.50054407,26.9287269 0.718171926,26.9287269 C0.892274211,26.9287269 1.03917301,26.8226333 1.15886834,26.6050054 C1.27856366,26.3873776 1.33841132,26.1044614 1.33841132,25.7562568 L1.33841132,2.28509249 C1.33841132,1.98041349 1.45810664,1.71381937 1.69749728,1.48531012 C1.93688792,1.25680087 2.21980413,1.14254625 2.54624592,1.14254625 L17.8237214,1.14254625 C18.1284004,1.14254625 18.3895539,1.08541893 18.6071817,0.973884657 C18.8248096,0.862350381 18.9515959,0.631643861 19.0078293,0.441915124 C19.0640627,0.252186387 19.0966552,0.211647788 19.3360459,0.110994905 C19.5754365,0.010342021 19.8014146,-1.31181524e-13 20.1088139,-1.31181524e-13 L20.85963,-1.31181524e-13 C21.164309,-1.31181524e-13 21.6456968,-0.0206165609 21.8054361,0.0752006024 C21.9651754,0.171017766 22.0364702,0.175141661 22.0364702,0.37372708 C22.0364702,0.569592151 21.9314472,1.16974973 21.7899891,1.48531012 C21.648531,1.80087051 21.468988,2.06746464 21.2513602,2.28509249 L20.5984766,2.97062024 C20.4026115,3.21001088 20.1142546,3.41675734 19.7334059,3.59085963 C19.3525571,3.76496192 19.0070729,3.85201306 18.7023939,3.85201306 L16.4635473,3.85201306 C16.1343852,3.85201306 15.8541893,3.96626768 15.6229597,4.19749728 C15.3917301,4.42872688 15.2774755,4.7007617 15.2774755,5.00816104 L15.2774755,5.79978237 C15.2774755,6.1289445 15.3917301,6.40369967 15.6229597,6.62404788 C15.8541893,6.84439608 16.1343852,6.95321001 16.4635473,6.95321001 L20.8813928,6.95321001 C21.210555,6.95321001 21.4853101,7.06746464 21.7056583,7.29325354 C21.9260065,7.51904244 22.0348205,7.79107726 22.0348205,8.11479869 L22.0348205,8.8601741 C22.0348205,9.1594124 21.9260065,9.42328618 21.7056583,9.64907508 C21.4853101,9.87758433 21.210555,9.98911861 20.8813928,9.98911861 L16.4635473,9.98911861 C16.1343852,9.98911861 15.8541893,10.1060936 15.6229597,10.3373232 C15.3917301,10.5685528 15.2774755,10.8378672 15.2774755,11.1479869 L15.2774755,11.3112078 C15.2774755,11.6430903 15.3917301,11.9205658 15.6229597,12.1381937 C15.8541893,12.3585419 16.1343852,12.4700762 16.4635473,12.4700762 L20.8813928,12.4700762 C21.210555,12.4700762 21.4853101,12.5897715 21.7056583,12.8264418 C21.9260065,13.0631121 22.0348205,13.3405876 22.0348205,13.664309 L22.0348205,22.9488575 C22.0348205,23.2535365 21.9260065,23.5201306 21.7056583,23.7486398 C21.4853101,23.9771491 21.210555,24.0914037 20.8813928,24.0914037 L20.1523395,24.0914037 C19.8449402,24.0914037 19.5756257,23.9771491 19.3443961,23.7486398 C19.1131665,23.5201306 18.9961915,23.2535365 18.9961915,22.9488575 L18.9961915,16.648531 C18.9961915,16.343852 18.8792165,16.0772579 18.6398259,15.8487486 C18.3977149,15.6202394 18.1256801,15.5059848 17.8210011,15.5059848 L9.79869423,15.5059848 C9.4695321,15.5059848 9.19205658,15.6202394 8.96082699,15.8487486 C8.73231774,16.0772579 8.61806311,16.343852 8.61806311,16.648531 L8.61806311,23.5038085 C8.61806311,23.8302503 8.50380849,24.1077258 8.27801959,24.336235 C8.05223069,24.5647443 7.78835691,24.6789989 7.48639826,24.6789989 L6.74646355,24.6789989 C6.42002176,24.6789989 6.14798694,24.5647443 5.92219804,24.336235 C5.69640914,24.1077258 5.58215452,23.8302503 5.58215452,23.5038085 L5.58215452,13.664309 C5.58215452,13.3405876 5.69640914,13.0631121 5.92491839,12.8264418 C6.15342764,12.5897715 6.43090316,12.4700762 6.75462459,12.4700762 L11.0636561,12.4700762 C11.4118607,12.4700762 11.6974973,12.3585419 11.9151251,12.1381937 C12.132753,11.9205658 12.2415669,11.6430903 12.2415669,11.3112078 L12.2415669,11.1479869 C12.2415669,10.8378672 12.132753,10.5685528 11.9124048,10.3373232 C11.6947769,10.1060936 11.4091404,9.98911861 11.0609358,9.98911861 L5.51958651,9.98911861 C5.21490751,9.98911861 4.94559304,10.1033732 4.71708379,10.3318825 C4.48857454,10.5603917 4.37431991,10.8269859 4.37431991,11.1316649 L4.37431991,26.343852 C4.37431991,26.6702938 4.29815016,27.0321001 4.14581066,27.4238303 C3.99891186,27.81284 3.80032644,28.1392818 3.56365615,28.3297062 C3.34874864,28.5690968 2.26332971,29.5865071 1.92056583,29.7415669 C1.57508161,29.8884657 1.27312296,29.9700762 1.01196953,29.9700762 C0.707290533,29.9700762 0.462459195,29.8531012 0.277475517,29.6300326 C0.092491839,29.4015234 0,29.1294886 0,28.8057671 L0,28.0930359 Z" id="Fill-3" fill="#3978BA" mask="url(#mask-4)"></path>
                    </g>
                    <g transform="translate(52.775367, 0.000000)">
                        <mask id="mask-6" fill="white">
                            <use xlink:href="#path-5"></use>
                        </mask>
                        <g id="Clip-6"></g>
                        <path d="M5.99524453,2.06845501 C5.99524453,1.76377601 6.10405846,1.50262258 6.32168632,1.28499472 C6.53659382,1.06736687 6.81134899,0.958552939 7.13779078,0.958552939 L20.194882,0.958552939 C20.5186034,0.958552939 20.7933586,1.06736687 21.0109864,1.28771507 C21.2286143,1.50806328 21.3374282,1.77193705 21.3374282,2.0793364 L21.3374282,2.83831355 C21.3374282,3.16747568 21.2286143,3.44223085 21.0109864,3.66257905 C20.7933586,3.88292726 20.5186034,3.99174119 20.194882,3.99174119 L10.1383348,3.99174119 C9.8363762,3.99174119 9.57250242,4.10599581 9.35487456,4.33450506 C9.13724671,4.56301431 9.03115313,4.83232878 9.03115313,5.13428743 L9.03115313,25.8185528 C9.03115313,26.1449946 9.13724671,26.4197497 9.35487456,26.6373776 C9.57250242,26.8550054 9.8363762,26.961099 10.1383348,26.961099 L20.5984766,26.961099 C20.922198,26.961099 21.1969532,27.0726333 21.4145811,27.2902612 C21.6322089,27.507889 21.7410229,27.7799238 21.7410229,28.1036453 L21.7410229,28.8571817 C21.7410229,29.1618607 21.6322089,29.4257345 21.4145811,29.6542437 C21.1969532,29.882753 20.922198,29.999728 20.5984766,29.999728 L9.55345998,29.999728 C9.39362461,29.999728 8.97565215,29.9350679 8.59619258,29.8349405 C8.24586609,29.7425004 7.95152255,29.6362987 7.74227119,29.5381165 C7.32370353,29.3417215 7.36495948,29.3639088 6.96483112,29.1507053 C6.78990817,29.0631151 6.23138036,28.3624634 6.09040566,27.8259184 C5.99524453,27.3878717 5.99524453,26.7434712 5.99524453,26.4360718 L5.99524453,2.06845501 Z M0.0964226186,9.4783991 C0.06516748,9.1432218 0.148336157,8.85789237 0.344180042,8.62449471 C0.541772533,8.38901315 0.806576475,8.25964496 1.14383768,8.23013843 L2.08989063,8.08043963 C2.41081588,8.04077677 2.69406141,8.12219684 2.9378786,8.32678375 C3.1837797,8.53311927 4.46095252,11.1728911 4.53979548,11.5048561 L4.65869027,12.289995 C4.62578,12.6661947 4.59431321,12.882826 4.38417735,13.125 C4.1740415,13.367174 3.28992257,13.6548849 2.91337177,13.5544863 L2.54569868,13.4493261 C2.16362922,13.2774107 0.769282019,11.3410719 0.526317382,10.9932514 C0.283352745,10.6454309 0.153132004,10.5238606 0.138212825,10.1988396 L0.0964226186,9.4783991 Z M0.0964226186,2.0543426 C0.06516748,1.71916529 0.148336156,1.43383586 0.344180042,1.20043821 C0.541772533,0.964956646 0.806576475,0.835588461 1.14383768,0.806081928 L2.08989063,0.65638313 C2.41081588,0.616720263 2.69406141,0.698140333 2.9378786,0.902727249 C3.1837797,1.10906277 4.46095252,3.7488346 4.53979548,4.08079956 L4.65869027,4.86593847 C4.62578,5.24213817 4.59431321,5.45876946 4.38417735,5.7009435 C4.1740415,5.94311753 3.28992257,6.23082843 2.91337177,6.13042976 L2.54569868,6.02526961 C2.16362922,5.85335421 0.769282019,3.9170154 0.526317382,3.56919491 C0.283352745,3.22137441 0.153132004,3.09980405 0.138212825,2.77478308 L0.0964226186,2.0543426 Z M-0.00799679548,28.130765 C-0.00799679548,27.8070435 0.00458574221,27.6064539 0.0970775812,27.3942667 C0.200450813,27.1575964 0.308044059,27.0752389 0.42437432,26.961099 C0.540704581,26.8469591 1.5414173,25.9229461 1.66927367,25.6998776 C1.78624864,25.5012922 1.78352829,25.2074946 1.78352829,24.8810528 L1.78352829,17.5102693 C1.78352829,17.1838275 1.89506257,16.9117927 2.11541077,16.6941649 C2.33575898,16.476537 2.59963275,16.3677231 2.90975245,16.3677231 L3.70137378,16.3677231 C4.00877312,16.3677231 4.26992655,16.476537 4.4929951,16.6941649 C4.71334331,16.9117927 4.82215724,17.1838275 4.82215724,17.5102693 L4.82215724,25.5040125 C4.82215724,25.8059712 4.74326714,26.1514554 4.59092764,26.5323041 C4.43586779,26.9104325 4.2780876,27.1117383 4.03053591,27.3946545 C3.78842492,27.6258841 1.64984966,29.9089954 1.34023166,29.9641945 C1.03061366,30.0193937 0.906572106,29.999728 0.718171926,29.97787 C0.529771746,29.956012 0.353645267,29.882753 0.21218716,29.6542437 C0.0680087051,29.4257345 -1.34183463e-12,29.1618607 -1.34183463e-12,28.8571817 L-0.00799679548,28.130765 Z" id="Fill-5" fill="#3978BA" mask="url(#mask-6)"></path>
                    </g>
                </g>
                <path d="M17.238,7.124 L17.238,5.148 L23.01,5.148 L23.01,2.808 L17.238,2.808 L17.238,0.39 L14.742,0.39 L14.742,2.808 L8.398,2.808 L8.398,0.39 L5.876,0.39 L5.876,2.808 L0,2.808 L0,5.148 L5.876,5.148 L5.876,7.046 L8.398,7.046 L8.398,5.148 L14.742,5.148 L14.742,7.124 L17.238,7.124 Z M2.34,24.518 C4.38533333,23.374 5.97566667,22.2473333 7.111,21.138 C8.24633333,20.0286667 9.09133333,18.7286667 9.646,17.238 C10.2006667,15.7473333 10.5386667,13.8666667 10.66,11.596 L10.66,11.596 L16.146,11.596 C16.094,12.5666667 16.0116667,13.819 15.899,15.353 C15.7863333,16.887 15.6866667,18.1913333 15.6,19.266 C15.548,19.8726667 15.4483333,20.319 15.301,20.605 C15.1536667,20.891 14.9066667,21.0816667 14.56,21.177 C14.2133333,21.2723333 13.6933333,21.32 13,21.32 L13,21.32 L9.88,21.32 L10.296,23.634 L13.728,23.634 C14.7333333,23.634 15.5263333,23.53 16.107,23.322 C16.6876667,23.114 17.1296667,22.7673333 17.433,22.282 C17.7363333,21.7966667 17.9226667,21.112 17.992,20.228 L17.992,20.228 L18.33,15.158 C19.5953333,16.4406667 20.774,17.7406667 21.866,19.058 L21.866,19.058 L23.66,17.29 C22.828,16.3193333 21.4933333,14.8893333 19.656,13 L19.656,13 L18.408,14.17 L18.486,12.948 C18.59,11.284 18.6593333,10.0706667 18.694,9.308 L18.694,9.308 L10.764,9.308 L10.816,7.228 L8.372,7.228 L8.32,9.308 L1.222,9.308 L1.222,11.596 L8.216,11.596 C8.07733333,13.5026667 7.76533333,15.08 7.28,16.328 C6.79466667,17.576 6.03633333,18.6766667 5.005,19.63 C3.97366667,20.5833333 2.522,21.5453333 0.65,22.516 L0.65,22.516 L2.34,24.518 Z M1.82,19.422 C2.46133333,18.7286667 3.16333333,17.8446667 3.926,16.77 C4.68866667,15.6953333 5.356,14.6726667 5.928,13.702 L5.928,13.702 L3.926,12.35 C3.37133333,13.3033333 2.73433333,14.287 2.015,15.301 C1.29566667,16.315 0.641333333,17.134 0.052,17.758 L0.052,17.758 L1.82,19.422 Z M48.45,23.92 L48.45,0.572 L46.058,0.572 L46.058,13.416 C44.9833333,10.7986667 44.0126667,8.57133333 43.146,6.734 L43.146,6.734 L41.274,7.566 C42.2966667,9.698 43.2673333,11.986 44.186,14.43 L44.186,14.43 L46.058,13.624 L46.058,23.92 L48.45,23.92 Z M29.652,24.44 C30.8826667,23.0706667 31.8186667,21.736 32.46,20.436 C33.1013333,19.136 33.552,17.6323333 33.812,15.925 C34.072,14.2176667 34.202,11.986 34.202,9.23 L34.202,9.23 L34.202,7.644 C34.8953333,9.08266667 35.7793333,11.3186667 36.854,14.352 L36.854,14.352 L38.804,13.442 L38.6234444,12.9573889 C37.6681852,10.407463 36.8361852,8.4122037 36.1274444,6.97161111 L35.996,6.708 L34.202,7.514 L34.202,0.624 L31.862,0.624 L31.862,9.152 C31.862,11.6826667 31.7406667,13.7106667 31.498,15.236 C31.2553333,16.7613333 30.8263333,18.0873333 30.211,19.214 C29.5956667,20.3406667 28.6813333,21.5713333 27.468,22.906 L27.468,22.906 L29.652,24.44 Z M41.17,23.348 L41.17,1.222 L38.804,1.222 L38.804,13.442 L38.804,23.348 L41.17,23.348 Z M28.924,15.106 C29.2533333,14.066 29.6086667,12.74 29.99,11.128 C30.3713333,9.516 30.666,8.138 30.874,6.994 L30.874,6.994 L28.794,6.63 C28.6033333,7.86066667 28.3303333,9.204 27.975,10.66 C27.6196667,12.116 27.2426667,13.3726667 26.844,14.43 L26.844,14.43 L28.924,15.106 Z M66.792,24.232 L66.792,11.57 L72.486,11.57 L72.486,17.134 C72.486,17.654 72.4513333,18.031 72.382,18.265 C72.3126667,18.499 72.1653333,18.6593333 71.94,18.746 C71.7146667,18.8326667 71.3593333,18.876 70.874,18.876 L70.874,18.876 L68.17,18.876 L68.638,21.398 L71.446,21.398 C72.382,21.398 73.1056667,21.2983333 73.617,21.099 C74.1283333,20.8996667 74.488,20.5573333 74.696,20.072 C74.904,19.5866667 75.008,18.8933333 75.008,17.992 L75.008,17.992 L75.008,9.152 L66.792,9.152 L66.792,5.72 L76.802,5.72 L76.802,3.406 L67.364,3.406 C66.9826667,2.418 66.532,1.30866667 66.012,0.078 L66.012,0.078 L63.36,0.494 C63.7413333,1.41266667 64.1226667,2.38333333 64.504,3.406 L64.504,3.406 L54.182,3.406 L54.182,5.72 L64.27,5.72 L64.27,9.152 L56.132,9.152 L56.132,21.632 L58.602,21.632 L58.602,11.57 L64.27,11.57 L64.27,24.232 L66.792,24.232 Z M82.82,24.18 C83.6693333,22.7586667 84.3063333,21.4326667 84.731,20.202 C85.1556667,18.9713333 85.446,17.589 85.602,16.055 C85.758,14.521 85.836,12.5233333 85.836,10.062 L85.836,10.062 L85.836,4.342 C88.0546667,4.27266667 90.8626667,4.121 94.26,3.887 C97.6573333,3.653 100.604,3.41466667 103.1,3.172 L103.1,3.172 L102.632,0.832 C99.72,1.144 96.4223333,1.42566667 92.739,1.677 C89.0556667,1.92833333 85.9226667,2.07133333 83.34,2.106 L83.34,2.106 L83.34,10.218 C83.34,12.506 83.2793333,14.2913333 83.158,15.574 C83.0366667,16.8566667 82.794,18.0223333 82.43,19.071 C82.066,20.1196667 81.4853333,21.3113333 80.688,22.646 L80.688,22.646 L82.82,24.18 Z M90.23,18.902 L90.23,13.104 L99.772,13.104 L99.772,18.85 L102.164,18.85 L102.164,10.894 L96.158,10.894 L96.158,8.658 L103.88,8.658 L103.88,6.5 L96.158,6.5 L96.158,4.264 L93.74,4.264 L93.74,6.5 L86.668,6.5 L86.668,8.658 L93.74,8.658 L93.74,10.894 L87.838,10.894 L87.838,18.902 L90.23,18.902 Z M86.252,24.18 C88.4706667,23.5733333 90.2256667,22.9623333 91.517,22.347 C92.8083333,21.7316667 93.8006667,20.9993333 94.494,20.15 C98.1513333,21.814 100.968,23.1486667 102.944,24.154 L102.944,24.154 L104.036,22.022 L95.56,18.174 C95.8026667,17.4113333 95.95,16.562 96.002,15.626 L96.002,15.626 L96.132,13.806 L93.766,13.806 C93.766,14.326 93.7313333,14.9153333 93.662,15.574 C93.5406667,16.8046667 93.2416667,17.771 92.765,18.473 C92.2883333,19.175 91.491,19.7816667 90.373,20.293 C89.255,20.8043333 87.578,21.3546667 85.342,21.944 L85.342,21.944 L86.252,24.18 Z M128.592,7.41 L128.592,1.118 L110.418,1.118 L110.418,7.41 L128.592,7.41 Z M126.174,3.614 L112.888,3.614 L112.888,2.6 L126.174,2.6 L126.174,3.614 Z M126.174,5.98 L112.888,5.98 L112.888,4.94 L126.174,4.94 L126.174,5.98 Z M131.114,10.166 L131.114,8.606 L107.922,8.606 L107.922,10.166 L131.114,10.166 Z M130.906,23.556 L130.906,21.97 L120.74,21.97 L120.74,20.748 L129.294,20.748 L129.294,19.24 L120.74,19.24 L120.74,18.07 L128.566,18.07 L128.566,11.414 L110.47,11.414 L110.47,18.07 L118.322,18.07 L118.322,19.24 L109.742,19.24 L109.742,20.748 L118.322,20.748 L118.322,21.97 L108.104,21.97 L108.104,23.556 L130.906,23.556 Z M118.322,13.988 L112.862,13.988 L112.862,12.844 L118.322,12.844 L118.322,13.988 Z M126.148,13.988 L120.74,13.988 L120.74,12.844 L126.148,12.844 L126.148,13.988 Z M118.322,16.562 L112.862,16.562 L112.862,15.392 L118.322,15.392 L118.322,16.562 Z M126.148,16.562 L120.74,16.562 L120.74,15.392 L126.148,15.392 L126.148,16.562 Z M156.424,23.582 L156.424,21.554 L147.74,21.554 L147.74,19.5 L152.446,19.5 L152.446,17.628 C153.711333,18.6506667 155.28,19.5693333 157.152,20.384 L157.152,20.384 L158.192,18.304 C156.822667,17.7493333 155.665667,17.173 154.721,16.575 C153.776333,15.977 152.905333,15.2446667 152.108,14.378 L152.108,14.378 L157.802,14.378 L157.802,12.454 L153.642,12.454 L153.642,4.342 L156.944,4.342 L156.944,2.444 L153.642,2.444 L153.642,0.39 L151.276,0.39 L151.276,2.444 L141.734,2.444 L141.734,0.39 L139.342,0.39 L139.342,2.444 L136.066,2.444 L136.066,4.342 L139.342,4.342 L139.342,12.454 L135.208,12.454 L135.208,14.378 L140.876,14.378 C139.472,15.9553333 137.444,17.316 134.792,18.46 L134.792,18.46 L135.832,20.592 C137.478667,19.8293333 139.012667,18.876 140.434,17.732 L140.434,17.732 L140.434,19.5 L145.374,19.5 L145.374,21.554 L136.534,21.554 L136.534,23.582 L156.424,23.582 Z M151.276,5.954 L141.734,5.954 L141.734,4.342 L151.276,4.342 L151.276,5.954 Z M151.276,9.178 L141.734,9.178 L141.734,7.618 L151.276,7.618 L151.276,9.178 Z M151.276,12.454 L141.734,12.454 L141.734,10.842 L151.276,10.842 L151.276,12.454 Z M145.374,17.576 L140.616,17.576 C141.881333,16.5013333 142.860667,15.4353333 143.554,14.378 L143.554,14.378 L149.43,14.378 C150.314,15.6433333 151.302,16.7093333 152.394,17.576 L152.394,17.576 L147.74,17.576 L147.74,15.418 L145.374,15.418 L145.374,17.576 Z M184.178,24.076 L184.178,13.624 L181.89,13.624 L181.89,20.644 L179.056,20.644 L179.056,12.064 L183.84,12.064 L183.84,2.652 L181.604,2.652 L181.604,9.724 L179.056,9.724 L179.056,0.364 L176.69,0.364 L176.69,9.724 L174.194,9.724 L174.194,2.652 L171.984,2.652 L171.984,12.064 L176.69,12.064 L176.69,20.644 L173.96,20.644 L173.96,13.676 L171.672,13.676 L171.672,22.906 L181.89,22.906 L181.89,24.076 L184.178,24.076 Z M165.9,23.712 L165.9,21.866 L170.112,21.866 L170.112,9.308 L166.134,9.308 C166.671333,7.83466667 167.139333,6.27466667 167.538,4.628 L167.538,4.628 L171.048,4.628 L171.048,2.34 L162.182,2.34 L162.182,4.628 L165.25,4.628 C164.920667,6.20533333 164.439667,7.787 163.807,9.373 C163.174333,10.959 162.468,12.3673333 161.688,13.598 L161.688,13.598 L162.572,16.12 C162.866667,15.704 163.274,15.08 163.794,14.248 L163.794,14.248 L163.794,23.712 L165.9,23.712 Z M168.058,19.708 L165.9,19.708 L165.9,11.544 L168.058,11.544 L168.058,19.708 Z M193.992,6.682 L196.046,5.018 C194.468667,2.99 193.203333,1.46466667 192.25,0.442 L192.25,0.442 L190.326,2.002 C191.955333,4.03 193.177333,5.59 193.992,6.682 L193.992,6.682 Z M197.71,10.114 C200.119333,8.67533333 201.324,6.942 201.324,4.914 L201.324,4.914 L201.324,3.562 L206.186,3.562 L206.186,6.708 C206.186,7.592 206.381,8.19433333 206.771,8.515 C207.161,8.83566667 207.832667,8.98733333 208.786,8.97 L211.62,8.97 L211.984,6.682 L209.956,6.682 C209.453333,6.66466667 209.119667,6.591 208.955,6.461 C208.790333,6.331 208.708,6.04066667 208.708,5.59 L208.708,5.59 L208.708,1.326 L198.932,1.326 L198.932,3.9 C198.932,4.576 198.845333,5.148 198.672,5.616 C198.498667,6.084 198.204,6.53033333 197.788,6.955 C197.372,7.37966667 196.765333,7.852 195.968,8.372 L195.968,8.372 L197.71,10.114 Z M192.302,23.14 L197.58,18.72 L196.722,16.328 L193.966,18.668 L193.966,8.476 L188.922,8.476 L188.922,10.816 L191.522,10.816 L191.522,19.656 C191.522,20.0026667 191.478667,20.28 191.392,20.488 C191.305333,20.696 191.114667,20.956 190.82,21.268 L190.82,21.268 L192.302,23.14 Z M196.41,24.284 C199.426,23.192 201.930667,21.97 203.924,20.618 C205.761333,21.866 208.153333,23.062 211.1,24.206 L211.1,24.206 L212.166,21.762 C209.618,20.982 207.512,20.098 205.848,19.11 C207.72,17.4633333 209.158667,15.47 210.164,13.13 L210.164,13.13 L210.164,10.816 L197.476,10.816 L197.476,13.104 C198.637333,15.4786667 200.110667,17.4546667 201.896,19.032 C200.041333,20.176 197.788,21.1813333 195.136,22.048 L195.136,22.048 L196.41,24.284 Z M203.82,17.68 C202.364,16.484 201.142,14.9586667 200.154,13.104 L200.154,13.104 L207.46,13.104 C206.662667,14.82 205.449333,16.3453333 203.82,17.68 Z M235.344,23.556 C236.228,23.556 236.917,23.4736667 237.411,23.309 C237.905,23.1443333 238.273333,22.8583333 238.516,22.451 C238.758667,22.0436667 238.914667,21.45 238.984,20.67 C239.036,20.0806667 239.088,19.3093333 239.14,18.356 L239.14,18.356 L237.06,17.836 L236.982,19.604 C236.947333,20.176 236.865,20.5833333 236.735,20.826 C236.605,21.0686667 236.384,21.2333333 236.072,21.32 C235.76,21.4066667 235.266,21.45 234.59,21.45 L234.59,21.45 L230.248,21.45 C229.676,21.45 229.251333,21.4023333 228.974,21.307 C228.696667,21.2116667 228.501667,21.021 228.389,20.735 C228.276333,20.449 228.22,20.0026667 228.22,19.396 L228.22,19.396 L228.22,13.26 L230.82,12.506 L230.82,19.942 L232.926,19.942 L232.926,11.908 L235.786,11.102 C235.793536,11.1547536 235.797796,11.2541991 235.798779,11.4003365 L235.798386,11.5981134 C235.793143,12.1852842 235.754348,13.2505797 235.682,14.794 C235.647333,15.158 235.595333,15.4223333 235.526,15.587 C235.456667,15.7516667 235.335333,15.86 235.162,15.912 C234.988667,15.964 234.702667,15.99 234.304,15.99 L234.304,15.99 L233.29,15.99 L233.68,18.122 L235.266,18.122 C236.167333,18.122 236.791333,17.953 237.138,17.615 C237.484667,17.277 237.684,16.64 237.736,15.704 C237.805333,14.7506667 237.900667,12.2113333 238.022,8.086 L238.022,8.086 L232.926,9.568 L232.926,6.162 L230.82,6.162 L230.82,10.192 L228.22,10.972 L228.22,8.58 L226.374,8.58 C227.067333,7.592 227.708667,6.54333333 228.298,5.434 L228.298,5.434 L238.932,5.434 L238.932,3.172 L229.416,3.172 C229.78,2.392 230.118,1.55133333 230.43,0.65 L230.43,0.65 L228.272,0.182 C227.838667,1.46466667 227.262333,2.76466667 226.543,4.082 C225.823667,5.39933333 225.030667,6.63 224.164,7.774 L224.164,7.774 L225.75,9.438 L226.14,8.918 L226.14,11.57 L224.632,12.012 L224.788,14.222 L226.14,13.832 L226.14,20.072 C226.14,21.008 226.257,21.7273333 226.491,22.23 C226.725,22.7326667 227.084667,23.0793333 227.57,23.27 C228.055333,23.4606667 228.722667,23.556 229.572,23.556 L229.572,23.556 L235.344,23.556 Z M217.586,24.31 C218.227333,22.854 218.725667,21.5626667 219.081,20.436 C219.436333,19.3093333 219.700667,18.0743333 219.874,16.731 C220.047333,15.3876667 220.142667,13.7366667 220.16,11.778 L220.16,11.778 L222.136,11.778 C222.118667,12.7833333 222.088333,14.144 222.045,15.86 C222.001667,17.576 221.962667,18.954 221.928,19.994 C221.893333,20.514 221.793667,20.852 221.629,21.008 C221.464333,21.164 221.104667,21.242 220.55,21.242 L220.55,21.242 L219.276,21.242 L219.718,23.478 L221.174,23.478 C222.144667,23.478 222.842333,23.3046667 223.267,22.958 C223.691667,22.6113333 223.921333,22.0046667 223.956,21.138 L223.956,21.138 L224.216,9.672 L220.16,9.672 L220.16,6.5 L224.84,6.5 L224.84,4.264 L222.318,4.264 C221.971333,2.912 221.598667,1.60333333 221.2,0.338 L221.2,0.338 L219.016,0.78 C219.414667,2.09733333 219.726667,3.25866667 219.952,4.264 L219.952,4.264 L216.234,4.264 L216.234,6.5 L218.08,6.5 L218.08,10.634 C218.062667,12.714 217.984667,14.4516667 217.846,15.847 C217.707333,17.2423333 217.473333,18.486 217.144,19.578 C216.814667,20.67 216.355333,21.8313333 215.766,23.062 L215.766,23.062 L217.586,24.31 Z M265.958,12.974 L265.958,10.166 L243.052,10.166 L243.052,12.974 L265.958,12.974 Z M274.472,4.758 L276.942,4.212 L275.642,0.234 L273.198,0.806 L274.472,4.758 Z M283.078,24.154 L283.078,22.516 L289.578,22.516 L289.578,24.154 L291.97,24.154 L291.97,11.648 L287.082,11.648 L287.082,6.89 L293.062,6.89 L293.062,4.524 L287.082,4.524 L287.082,0.39 L284.612,0.39 L284.612,11.648 L280.712,11.648 L280.712,24.154 L283.078,24.154 Z M280.322,7.514 L280.322,5.148 L270.104,5.148 L270.104,7.514 L280.322,7.514 Z M270.26,22.516 L279.958,20.644 L279.854,19.344 L279.776,18.174 L277.124,18.668 C278.146667,14.6466667 278.918,11.388 279.438,8.892 L279.438,8.892 L277.228,8.398 C276.933333,9.87133333 276.556333,11.6523333 276.097,13.741 C275.637667,15.8296667 275.208667,17.6193333 274.81,19.11 L274.81,19.11 L269.948,20.046 L270.26,22.516 Z M272.626,17.576 L274.81,17.082 C274.567333,15.7646667 274.082,13.6153333 273.354,10.634 C273.215333,10.1486667 273.107,9.73266667 273.029,9.386 C272.951,9.03933333 272.886,8.75333333 272.834,8.528 L272.834,8.528 L270.702,9.126 C271.672667,12.9046667 272.314,15.7213333 272.626,17.576 L272.626,17.576 Z M289.578,20.176 L283.078,20.176 L283.078,14.04 L289.578,14.04 L289.578,20.176 Z M316.24,24.024 C316.933333,24.024 317.514,23.7856667 317.982,23.309 C318.45,22.8323333 318.831333,21.9873333 319.126,20.774 C319.282,20.202 319.498667,18.98 319.776,17.108 L319.776,17.108 L317.748,16.38 C317.609333,17.2813333 317.436,18.278 317.228,19.37 C317.089333,20.0633333 316.946333,20.5356667 316.799,20.787 C316.651667,21.0383333 316.474,21.164 316.266,21.164 C316.023333,21.164 315.798,21.099 315.59,20.969 C315.382,20.839 315.174,20.5833333 314.966,20.202 C314.255333,19.058 313.683333,17.4416667 313.25,15.353 C312.816667,13.2643333 312.487333,10.5473333 312.262,7.202 L312.262,7.202 L319.776,7.202 L319.776,4.784 L317.228,4.784 L318.398,3.38 C316.803333,1.94133333 315.668,0.927333333 314.992,0.338 L314.992,0.338 L313.536,1.976 C314.870667,3.172 315.876,4.108 316.552,4.784 L316.552,4.784 L312.132,4.784 C312.062667,3.12 312.028,1.638 312.028,0.338 L312.028,0.338 L309.48,0.338 C309.549333,1.04866667 309.601333,2.53066667 309.636,4.784 L309.636,4.784 L297.052,4.784 L297.052,7.202 L309.74,7.202 C309.930667,10.4606667 310.273,13.2556667 310.767,15.587 C311.261,17.9183333 311.846,19.7253333 312.522,21.008 C313.146,22.1173333 313.744,22.8973333 314.316,23.348 C314.888,23.7986667 315.529333,24.024 316.24,24.024 Z M297.208,22.594 C297.710667,22.49 299.578333,22.23 302.811,21.814 C306.043667,21.398 308.414,21.0946667 309.922,20.904 L309.922,20.904 L309.896,19.76 L309.87,18.434 C309.384667,18.5206667 307.634,18.7633333 304.618,19.162 L304.618,19.162 L304.618,13.182 L308.856,13.182 L308.856,10.79 L297.728,10.79 L297.728,13.182 L302.07,13.182 L302.07,19.5 C299.106,19.864 297.381333,20.0633333 296.896,20.098 L296.896,20.098 L297.208,22.594 Z M325.612,24.31 C326.218667,23.0273333 326.665,21.7273333 326.951,20.41 C327.237,19.0926667 327.432,17.6453333 327.536,16.068 L327.536,16.068 L330.838,16.068 L330.838,20.306 C330.838,20.8086667 330.755667,21.138 330.591,21.294 C330.426333,21.45 330.058,21.528 329.486,21.528 L329.486,21.528 L327.64,21.528 L328.082,23.764 L330.188,23.764 C331.245333,23.764 331.973333,23.5863333 332.372,23.231 C332.770667,22.8756667 332.97,22.2126667 332.97,21.242 L332.97,21.242 L332.97,1.482 L325.482,1.482 L325.482,11.44 C325.482,13.9013333 325.434333,15.795 325.339,17.121 C325.243667,18.447 325.087667,19.4826667 324.871,20.228 C324.654333,20.9733333 324.329333,21.7446667 323.896,22.542 L323.896,22.542 L325.612,24.31 Z M336.922,24.232 L336.922,22.646 L337.78,23.842 C339.305333,22.6633333 340.570667,21.5193333 341.576,20.41 C342.772,21.6926667 344.245333,22.8886667 345.996,23.998 L345.996,23.998 L347.244,21.84 C345.424,20.7653333 344.011333,19.7253333 343.006,18.72 C344.444667,16.7613333 345.424,14.6293333 345.944,12.324 L345.944,12.324 L345.944,10.14 L336.922,10.14 L336.922,3.77 L343.422,3.77 L343.318,5.382 C343.283333,5.798 343.144667,6.084 342.902,6.24 C342.659333,6.396 342.208667,6.474 341.55,6.474 L341.55,6.474 L338.534,6.474 L338.95,8.554 L342.538,8.554 C343.318,8.554 343.920333,8.48033333 344.345,8.333 C344.769667,8.18566667 345.077333,7.92566667 345.268,7.553 C345.458667,7.18033333 345.571333,6.63 345.606,5.902 L345.606,5.902 L345.71,2.834 L345.762,1.534 L334.686,1.534 L334.686,24.232 L336.922,24.232 Z M330.838,7.722 L327.614,7.722 L327.614,3.718 L330.838,3.718 L330.838,7.722 Z M330.838,13.962 L327.614,13.962 L327.614,9.828 L330.838,9.828 L330.838,13.962 Z M336.922,21.398 L336.922,12.324 L337.286,12.324 C338.118,14.9413333 339.08,17.0473333 340.172,18.642 C339.322667,19.526 338.239333,20.4446667 336.922,21.398 L336.922,21.398 Z M341.576,16.952 C340.761333,15.756 340.068,14.2133333 339.496,12.324 L339.496,12.324 L343.786,12.324 C343.352667,13.988 342.616,15.5306667 341.576,16.952 Z M351.728,13.702 C356.026667,12.6793333 359.649333,11.5093333 362.596,10.192 C364,10.8506667 365.586,11.4356667 367.354,11.947 C369.122,12.4583333 371.193333,12.9393333 373.568,13.39 L373.568,13.39 L374.192,11.076 C370.465333,10.4693333 367.449333,9.75866667 365.144,8.944 C367.38,7.748 369.477333,6.24866667 371.436,4.446 L371.436,4.446 L371.436,2.418 L359.398,2.418 C359.796667,1.93266667 360.23,1.352 360.698,0.676 L360.698,0.676 L358.254,0 C357.543333,1.12666667 356.546667,2.32266667 355.264,3.588 C353.981333,4.85333333 352.655333,5.94533333 351.286,6.864 L351.286,6.864 L352.716,8.632 C353.998667,7.71333333 355.16,6.77733333 356.2,5.824 C357.448,6.98533333 358.748,7.99066667 360.1,8.84 C357.517333,9.828 354.458,10.686 350.922,11.414 L350.922,11.414 L351.728,13.702 Z M362.544,7.826 C360.776,6.942 359.242,5.824 357.942,4.472 L357.942,4.472 L367.926,4.472 C366.522,5.70266667 364.728,6.82066667 362.544,7.826 Z M352.664,24.336 C354.501333,23.5733333 355.996333,22.8323333 357.149,22.113 C358.301667,21.3936667 359.216,20.6093333 359.892,19.76 C360.568,18.9106667 361.070667,17.914 361.4,16.77 L361.4,16.77 L368.94,16.77 L368.576,19.734 C368.506667,20.2366667 368.385333,20.6136667 368.212,20.865 C368.038667,21.1163333 367.765667,21.2896667 367.393,21.385 C367.020333,21.4803333 366.478667,21.528 365.768,21.528 L365.768,21.528 L361.842,21.528 L362.31,23.738 L366.574,23.738 C367.596667,23.738 368.411333,23.6383333 369.018,23.439 C369.624667,23.2396667 370.079667,22.9233333 370.383,22.49 C370.686333,22.0566667 370.89,21.4586667 370.994,20.696 C371.068286,20.1314286 371.225347,18.5480816 371.465184,15.9459592 L371.526867,15.2742041 C371.548003,15.0432109 371.569714,14.8051429 371.592,14.56 L371.592,14.56 L361.842,14.56 C361.859333,14.4213333 361.92,13.9533333 362.024,13.156 C362.058667,12.948 362.084667,12.753 362.102,12.571 C362.119333,12.389 362.145333,12.2286667 362.18,12.09 L362.18,12.09 L359.632,12.064 C359.597333,12.5146667 359.493333,13.3466667 359.32,14.56 L359.32,14.56 L352.404,14.56 L352.404,16.77 L358.826,16.77 C358.392667,17.966 357.604,18.9713333 356.46,19.786 C355.316,20.6006667 353.582667,21.424 351.26,22.256 L351.26,22.256 L352.664,24.336 Z M390.792,24.102 L390.792,16.016 L400.854,16.016 L400.854,13.546 L390.792,13.546 L390.792,4.004 L399.788,4.004 L399.788,1.534 L379.248,1.534 L379.248,4.004 L388.244,4.004 L388.244,13.546 L378.156,13.546 L378.156,16.016 L388.244,16.016 L388.244,24.102 L390.792,24.102 Z M394.692,12.324 C395.298667,11.6653333 396.039667,10.7726667 396.915,9.646 C397.790333,8.51933333 398.531333,7.53133333 399.138,6.682 L399.138,6.682 L397.162,5.252 C396.624667,6.04933333 395.927,7.01133333 395.069,8.138 C394.211,9.26466667 393.47,10.1573333 392.846,10.816 L392.846,10.816 L394.692,12.324 Z M384.11,12.324 L386.086,10.816 C384.664667,8.90933333 383.217333,7.06333333 381.744,5.278 L381.744,5.278 L379.898,6.76 C380.47,7.47066667 381.163333,8.36333333 381.978,9.438 C382.792667,10.5126667 383.503333,11.4746667 384.11,12.324 L384.11,12.324 Z M425.774,11.726 L427.568,10.088 C426.545333,8.944 425.323333,7.618 423.902,6.11 C422.480667,4.602 421.354,3.44933333 420.522,2.652 L420.522,2.652 L418.832,4.212 C419.906667,5.32133333 420.912,6.38733333 421.848,7.41 L421.848,7.41 L410.148,8.086 C411.014667,7.34066667 412.106667,6.29633333 413.424,4.953 C414.741333,3.60966667 415.868,2.392 416.804,1.3 L416.804,1.3 L414.386,0.156 C413.502,1.28266667 412.258333,2.626 410.655,4.186 C409.051667,5.746 407.496,7.098 405.988,8.242 L405.988,8.242 L406.638,10.738 L423.98,9.724 C424.413333,10.2093333 424.638667,10.4606667 424.656,10.478 C424.881333,10.7206667 425.085,10.946 425.267,11.154 C425.449,11.362 425.618,11.5526667 425.774,11.726 L425.774,11.726 Z M410.252,24.206 L410.252,22.698 L422.732,22.698 L422.732,24.206 L425.202,24.206 L425.202,13.104 L407.808,13.104 L407.808,24.206 L410.252,24.206 Z M422.732,20.306 L410.252,20.306 L410.252,15.496 L422.732,15.496 L422.732,20.306 Z" id="苏州市质量基础设施一站式服务平台" fill="#3978BA" fill-rule="nonzero"></path>
            </g>
        </g>
    </g>
</svg>