<?xml version="1.0" encoding="UTF-8"?>
<svg width="20px" height="20px" viewBox="0 0 20 20" version="1.1" xmlns="http://www.w3.org/2000/svg" xmlns:xlink="http://www.w3.org/1999/xlink">
    <title>首页</title>
    <defs>
        <filter id="filter-1">
            <feColorMatrix in="SourceGraphic" type="matrix" values="0 0 0 0 1.000000 0 0 0 0 1.000000 0 0 0 0 1.000000 0 0 0 1.000000 0"></feColorMatrix>
        </filter>
    </defs>
    <g id="页面-1" stroke="none" stroke-width="1" fill="none" fill-rule="evenodd">
        <g id="首页" transform="translate(-395.000000, -155.000000)" filter="url(#filter-1)">
            <g transform="translate(395.000000, 155.000000)">
                <rect id="矩形" x="0.143488162" y="2.56584877e-14" width="18.9473684" height="20"></rect>
                <path d="M8.38688529,14.4613636 L10.8470288,14.4613636 L10.8471608,18.8521272 C10.8471608,19.228685 11.1363549,19.5339454 11.4930939,19.5339454 L16.4877555,19.5339454 L16.5499637,19.5308242 C16.8775201,19.4977851 17.1336929,19.2065288 17.1336885,18.8521182 L17.1332489,11.5736364 L17.727013,11.5736383 C18.1414491,11.5736383 18.5374655,11.3936355 18.822143,11.0759347 C19.3941269,10.4375993 19.3675737,9.43068137 18.7628349,8.82692063 L10.9487454,1.02546958 C10.2016504,0.279582953 9.03269308,0.279582953 8.28559811,1.02546958 L0.471508643,8.82692063 C0.170528912,9.12741356 7.47939722e-15,9.54543087 7.47939722e-15,9.98272919 L0.00223013228,10.0700179 C0.0451608592,10.9080575 0.702532506,11.5736383 1.50717703,11.5736383 L2.10023457,11.5736364 L2.10065501,18.8521345 C2.10065884,19.2286894 2.38985178,19.5339454 2.74658803,19.5339454 L7.74125175,19.5339454 C8.0979907,19.5339454 8.38718476,19.228685 8.38718476,18.8521272 L8.38688529,14.4613636 Z M10.0610296,2.01616263 L17.8751191,9.81761368 C17.9615104,9.90386521 17.9653037,10.0477106 17.8835917,10.1389014 C17.8429235,10.1842872 17.7863497,10.2100019 17.7271665,10.2100019 L16.487809,10.209691 L16.4255899,10.2127976 C16.0979738,10.245765 15.841718,10.537048 15.8417225,10.8915182 L15.8418135,18.17 L12.1388949,18.17 L12.1390269,14.2341553 C12.1390269,13.655752 11.7278981,13.1716912 11.1872146,13.1054028 L11.0996731,13.0989234 L8.17187376,13.0977917 C7.62391268,13.0977917 7.16532876,13.531761 7.10252922,14.1024824 L7.09639089,14.1948873 L7.09501926,18.17 L3.3921006,18.17 L3.39244019,10.8915018 C3.39243637,10.5148836 3.10314984,10.2096015 2.74635365,10.209691 L1.5070235,10.2100019 C1.38826405,10.2100019 1.29186603,10.1082484 1.29186603,9.98272919 C1.29186603,9.920258 1.3162273,9.86054124 1.35922441,9.81761368 L9.17331387,2.01616263 C9.42234553,1.76753376 9.81199798,1.76753376 10.0610296,2.01616263 Z" id="形状结合" fill="#333333" fill-rule="nonzero"></path>
            </g>
        </g>
    </g>
</svg>